<mxfile host="app.diagrams.net" modified="2023-12-26T14:58:16.193Z" agent="Mozilla/5.0 (Windows NT 10.0; Win64; x64) AppleWebKit/537.36 (KHTML, like Gecko) Chrome/120.0.0.0 Safari/537.36" etag="-iS3ytK6NpYopudhhJI3" version="22.1.11" type="device" pages="2">
  <diagram name="BFD" id="84VGd8YadY4OPoJ1dPUX">
    <mxGraphModel dx="2500" dy="1044" grid="0" gridSize="10" guides="1" tooltips="1" connect="1" arrows="0" fold="1" page="0" pageScale="1" pageWidth="827" pageHeight="1169" math="0" shadow="0">
      <root>
        <mxCell id="0" />
        <mxCell id="1" parent="0" />
        <mxCell id="7lXh8CAYZHqnAM5e5lu5-1" value="Hệ thống&amp;nbsp;tra cứu tài liệu trực tuyến" style="rounded=0;whiteSpace=wrap;html=1;fontSize=14;" parent="1" vertex="1">
          <mxGeometry x="286" y="90" width="225" height="60" as="geometry" />
        </mxCell>
        <mxCell id="7lXh8CAYZHqnAM5e5lu5-2" value="Người dùng" style="rounded=0;whiteSpace=wrap;html=1;fontSize=14;" parent="1" vertex="1">
          <mxGeometry x="429" y="246" width="181" height="60" as="geometry" />
        </mxCell>
        <mxCell id="7lXh8CAYZHqnAM5e5lu5-3" value="Thêm, sửa, xóa người dùng" style="rounded=0;whiteSpace=wrap;html=1;fontSize=14;" parent="1" vertex="1">
          <mxGeometry x="455" y="334" width="159" height="60" as="geometry" />
        </mxCell>
        <mxCell id="7lXh8CAYZHqnAM5e5lu5-5" value="Tìm kiếm người dùng" style="rounded=0;whiteSpace=wrap;html=1;fontSize=14;" parent="1" vertex="1">
          <mxGeometry x="455" y="422" width="159" height="60" as="geometry" />
        </mxCell>
        <mxCell id="7lXh8CAYZHqnAM5e5lu5-6" value="Đăng nhập, đăng xuất" style="rounded=0;whiteSpace=wrap;html=1;fontSize=14;" parent="1" vertex="1">
          <mxGeometry x="455" y="510" width="159" height="60" as="geometry" />
        </mxCell>
        <mxCell id="7lXh8CAYZHqnAM5e5lu5-7" value="Đổi mật khẩu" style="rounded=0;whiteSpace=wrap;html=1;fontSize=14;" parent="1" vertex="1">
          <mxGeometry x="455" y="598" width="159" height="60" as="geometry" />
        </mxCell>
        <mxCell id="7lXh8CAYZHqnAM5e5lu5-8" value="Thông báo" style="rounded=0;whiteSpace=wrap;html=1;fontSize=14;" parent="1" vertex="1">
          <mxGeometry x="700" y="246" width="181" height="60" as="geometry" />
        </mxCell>
        <mxCell id="7lXh8CAYZHqnAM5e5lu5-9" value="Thêm, sửa, xóa thông báo" style="rounded=0;whiteSpace=wrap;html=1;fontSize=14;" parent="1" vertex="1">
          <mxGeometry x="722" y="334" width="159" height="60" as="geometry" />
        </mxCell>
        <mxCell id="7lXh8CAYZHqnAM5e5lu5-10" value="Xem danh sách thông báo" style="rounded=0;whiteSpace=wrap;html=1;fontSize=14;" parent="1" vertex="1">
          <mxGeometry x="722" y="422" width="159" height="60" as="geometry" />
        </mxCell>
        <mxCell id="7lXh8CAYZHqnAM5e5lu5-11" value="Xem chi tiết thông báo" style="rounded=0;whiteSpace=wrap;html=1;fontSize=14;" parent="1" vertex="1">
          <mxGeometry x="722" y="510" width="159" height="60" as="geometry" />
        </mxCell>
        <mxCell id="7lXh8CAYZHqnAM5e5lu5-12" value="Chương trình đào tạo" style="rounded=0;whiteSpace=wrap;html=1;fontSize=14;" parent="1" vertex="1">
          <mxGeometry x="-376" y="246" width="181" height="60" as="geometry" />
        </mxCell>
        <mxCell id="7lXh8CAYZHqnAM5e5lu5-13" value="Thêm, sửa, xóa chương trình đào tạo" style="rounded=0;whiteSpace=wrap;html=1;fontSize=14;" parent="1" vertex="1">
          <mxGeometry x="-354" y="334" width="159" height="60" as="geometry" />
        </mxCell>
        <mxCell id="7lXh8CAYZHqnAM5e5lu5-15" value="Học phần" style="rounded=0;whiteSpace=wrap;html=1;fontSize=14;" parent="1" vertex="1">
          <mxGeometry x="-105" y="246" width="181" height="60" as="geometry" />
        </mxCell>
        <mxCell id="7lXh8CAYZHqnAM5e5lu5-16" value="Thêm, sửa, xóa học phần" style="rounded=0;whiteSpace=wrap;html=1;fontSize=14;" parent="1" vertex="1">
          <mxGeometry x="-83" y="334" width="159" height="60" as="geometry" />
        </mxCell>
        <mxCell id="7lXh8CAYZHqnAM5e5lu5-17" value="Tìm kiếm học phần theo chương trình đào tạo" style="rounded=0;whiteSpace=wrap;html=1;fontSize=14;" parent="1" vertex="1">
          <mxGeometry x="-83" y="422" width="159" height="60" as="geometry" />
        </mxCell>
        <mxCell id="7lXh8CAYZHqnAM5e5lu5-18" value="Tài liệu" style="rounded=0;whiteSpace=wrap;html=1;fontSize=14;" parent="1" vertex="1">
          <mxGeometry x="166" y="246" width="181" height="60" as="geometry" />
        </mxCell>
        <mxCell id="7lXh8CAYZHqnAM5e5lu5-19" value="Thêm, sửa, xóa tài liệu" style="rounded=0;whiteSpace=wrap;html=1;fontSize=14;" parent="1" vertex="1">
          <mxGeometry x="188" y="334" width="159" height="60" as="geometry" />
        </mxCell>
        <mxCell id="7lXh8CAYZHqnAM5e5lu5-20" value="Xem danh sách tài liệu" style="rounded=0;whiteSpace=wrap;html=1;fontSize=14;" parent="1" vertex="1">
          <mxGeometry x="188" y="422" width="159" height="60" as="geometry" />
        </mxCell>
        <mxCell id="7lXh8CAYZHqnAM5e5lu5-21" value="Chi tiết tài liệu" style="rounded=0;whiteSpace=wrap;html=1;fontSize=14;" parent="1" vertex="1">
          <mxGeometry x="188" y="510" width="159" height="60" as="geometry" />
        </mxCell>
        <mxCell id="7lXh8CAYZHqnAM5e5lu5-22" value="Tải tài liệu" style="rounded=0;whiteSpace=wrap;html=1;fontSize=14;" parent="1" vertex="1">
          <mxGeometry x="190" y="598" width="159" height="60" as="geometry" />
        </mxCell>
        <mxCell id="7lXh8CAYZHqnAM5e5lu5-23" value="Tìm kiếm tài liệu theo môn, theo từ khóa" style="rounded=0;whiteSpace=wrap;html=1;fontSize=14;" parent="1" vertex="1">
          <mxGeometry x="190" y="686" width="159" height="60" as="geometry" />
        </mxCell>
        <mxCell id="7lXh8CAYZHqnAM5e5lu5-24" value="Yêu cầu" style="rounded=0;whiteSpace=wrap;html=1;fontSize=14;" parent="1" vertex="1">
          <mxGeometry x="957" y="246" width="181" height="60" as="geometry" />
        </mxCell>
        <mxCell id="7lXh8CAYZHqnAM5e5lu5-25" value="Tạo góp ý,&amp;nbsp;bổ sung tài liệu" style="rounded=0;whiteSpace=wrap;html=1;fontSize=14;" parent="1" vertex="1">
          <mxGeometry x="979" y="334" width="159" height="60" as="geometry" />
        </mxCell>
        <mxCell id="7lXh8CAYZHqnAM5e5lu5-26" value="Thêm, xóa, sửa thăm dò ý kiến" style="rounded=0;whiteSpace=wrap;html=1;fontSize=14;" parent="1" vertex="1">
          <mxGeometry x="979" y="510" width="159" height="60" as="geometry" />
        </mxCell>
        <mxCell id="7lXh8CAYZHqnAM5e5lu5-27" value="Bỏ phiếu thăm dò ý kiến" style="rounded=0;whiteSpace=wrap;html=1;fontSize=14;" parent="1" vertex="1">
          <mxGeometry x="979" y="598" width="159" height="60" as="geometry" />
        </mxCell>
        <mxCell id="7lXh8CAYZHqnAM5e5lu5-28" value="Tạo yêu cầu gia hạn tài liệu" style="rounded=0;whiteSpace=wrap;html=1;fontSize=14;" parent="1" vertex="1">
          <mxGeometry x="979" y="422" width="159" height="60" as="geometry" />
        </mxCell>
        <mxCell id="7lXh8CAYZHqnAM5e5lu5-29" value="Xem, xóa yêu cầu" style="rounded=0;whiteSpace=wrap;html=1;fontSize=14;" parent="1" vertex="1">
          <mxGeometry x="979" y="686" width="159" height="60" as="geometry" />
        </mxCell>
        <mxCell id="7lXh8CAYZHqnAM5e5lu5-30" value="Thông báo yêu cầu mới" style="rounded=0;whiteSpace=wrap;html=1;fontSize=14;" parent="1" vertex="1">
          <mxGeometry x="979" y="864" width="159" height="60" as="geometry" />
        </mxCell>
        <mxCell id="7lXh8CAYZHqnAM5e5lu5-31" value="Trả lời yêu cầu qua email" style="rounded=0;whiteSpace=wrap;html=1;fontSize=14;" parent="1" vertex="1">
          <mxGeometry x="979" y="775" width="159" height="60" as="geometry" />
        </mxCell>
        <mxCell id="7lXh8CAYZHqnAM5e5lu5-32" value="" style="endArrow=none;html=1;rounded=0;exitX=0.5;exitY=0;exitDx=0;exitDy=0;entryX=0.5;entryY=1;entryDx=0;entryDy=0;edgeStyle=orthogonalEdgeStyle;fontSize=14;" parent="1" source="7lXh8CAYZHqnAM5e5lu5-12" target="7lXh8CAYZHqnAM5e5lu5-1" edge="1">
          <mxGeometry width="50" height="50" relative="1" as="geometry">
            <mxPoint x="274" y="478" as="sourcePoint" />
            <mxPoint x="324" y="428" as="targetPoint" />
          </mxGeometry>
        </mxCell>
        <mxCell id="7lXh8CAYZHqnAM5e5lu5-33" value="" style="endArrow=none;html=1;rounded=0;exitX=0.5;exitY=0;exitDx=0;exitDy=0;entryX=0.5;entryY=1;entryDx=0;entryDy=0;edgeStyle=orthogonalEdgeStyle;fontSize=14;" parent="1" source="7lXh8CAYZHqnAM5e5lu5-15" target="7lXh8CAYZHqnAM5e5lu5-1" edge="1">
          <mxGeometry width="50" height="50" relative="1" as="geometry">
            <mxPoint x="274" y="478" as="sourcePoint" />
            <mxPoint x="324" y="428" as="targetPoint" />
          </mxGeometry>
        </mxCell>
        <mxCell id="7lXh8CAYZHqnAM5e5lu5-34" value="" style="endArrow=none;html=1;rounded=0;exitX=0.5;exitY=0;exitDx=0;exitDy=0;entryX=0.5;entryY=1;entryDx=0;entryDy=0;edgeStyle=orthogonalEdgeStyle;fontSize=14;" parent="1" source="7lXh8CAYZHqnAM5e5lu5-18" target="7lXh8CAYZHqnAM5e5lu5-1" edge="1">
          <mxGeometry width="50" height="50" relative="1" as="geometry">
            <mxPoint x="274" y="478" as="sourcePoint" />
            <mxPoint x="324" y="428" as="targetPoint" />
          </mxGeometry>
        </mxCell>
        <mxCell id="7lXh8CAYZHqnAM5e5lu5-35" value="" style="endArrow=none;html=1;rounded=0;exitX=0.5;exitY=0;exitDx=0;exitDy=0;entryX=0.5;entryY=1;entryDx=0;entryDy=0;edgeStyle=orthogonalEdgeStyle;fontSize=14;" parent="1" source="7lXh8CAYZHqnAM5e5lu5-2" target="7lXh8CAYZHqnAM5e5lu5-1" edge="1">
          <mxGeometry width="50" height="50" relative="1" as="geometry">
            <mxPoint x="225" y="256" as="sourcePoint" />
            <mxPoint x="409" y="160" as="targetPoint" />
          </mxGeometry>
        </mxCell>
        <mxCell id="7lXh8CAYZHqnAM5e5lu5-36" value="" style="endArrow=none;html=1;rounded=0;exitX=0.5;exitY=0;exitDx=0;exitDy=0;entryX=0.5;entryY=1;entryDx=0;entryDy=0;edgeStyle=orthogonalEdgeStyle;fontSize=14;" parent="1" source="7lXh8CAYZHqnAM5e5lu5-8" target="7lXh8CAYZHqnAM5e5lu5-1" edge="1">
          <mxGeometry width="50" height="50" relative="1" as="geometry">
            <mxPoint x="488" y="256" as="sourcePoint" />
            <mxPoint x="409" y="160" as="targetPoint" />
          </mxGeometry>
        </mxCell>
        <mxCell id="7lXh8CAYZHqnAM5e5lu5-37" value="" style="endArrow=none;html=1;rounded=0;exitX=0.5;exitY=0;exitDx=0;exitDy=0;entryX=0.5;entryY=1;entryDx=0;entryDy=0;edgeStyle=orthogonalEdgeStyle;fontSize=14;" parent="1" source="7lXh8CAYZHqnAM5e5lu5-24" target="7lXh8CAYZHqnAM5e5lu5-1" edge="1">
          <mxGeometry width="50" height="50" relative="1" as="geometry">
            <mxPoint x="759" y="256" as="sourcePoint" />
            <mxPoint x="409" y="160" as="targetPoint" />
          </mxGeometry>
        </mxCell>
        <mxCell id="7lXh8CAYZHqnAM5e5lu5-38" value="" style="endArrow=none;html=1;rounded=0;exitX=0;exitY=0.5;exitDx=0;exitDy=0;entryX=0;entryY=0.5;entryDx=0;entryDy=0;edgeStyle=orthogonalEdgeStyle;fontSize=14;" parent="1" source="7lXh8CAYZHqnAM5e5lu5-12" target="7lXh8CAYZHqnAM5e5lu5-13" edge="1">
          <mxGeometry width="50" height="50" relative="1" as="geometry">
            <mxPoint x="181" y="538" as="sourcePoint" />
            <mxPoint x="231" y="488" as="targetPoint" />
          </mxGeometry>
        </mxCell>
        <mxCell id="7lXh8CAYZHqnAM5e5lu5-39" value="" style="endArrow=none;html=1;rounded=0;exitX=0;exitY=0.5;exitDx=0;exitDy=0;entryX=0;entryY=0.5;entryDx=0;entryDy=0;edgeStyle=orthogonalEdgeStyle;fontSize=14;" parent="1" source="7lXh8CAYZHqnAM5e5lu5-15" target="7lXh8CAYZHqnAM5e5lu5-16" edge="1">
          <mxGeometry width="50" height="50" relative="1" as="geometry">
            <mxPoint x="181" y="538" as="sourcePoint" />
            <mxPoint x="231" y="488" as="targetPoint" />
          </mxGeometry>
        </mxCell>
        <mxCell id="7lXh8CAYZHqnAM5e5lu5-40" value="" style="endArrow=none;html=1;rounded=0;exitX=0;exitY=0.5;exitDx=0;exitDy=0;entryX=0;entryY=0.5;entryDx=0;entryDy=0;edgeStyle=orthogonalEdgeStyle;fontSize=14;" parent="1" source="7lXh8CAYZHqnAM5e5lu5-15" target="7lXh8CAYZHqnAM5e5lu5-17" edge="1">
          <mxGeometry width="50" height="50" relative="1" as="geometry">
            <mxPoint x="181" y="538" as="sourcePoint" />
            <mxPoint x="231" y="488" as="targetPoint" />
          </mxGeometry>
        </mxCell>
        <mxCell id="7lXh8CAYZHqnAM5e5lu5-41" value="" style="endArrow=none;html=1;rounded=0;exitX=0;exitY=0.5;exitDx=0;exitDy=0;entryX=0;entryY=0.5;entryDx=0;entryDy=0;edgeStyle=orthogonalEdgeStyle;fontSize=14;" parent="1" source="7lXh8CAYZHqnAM5e5lu5-18" target="7lXh8CAYZHqnAM5e5lu5-19" edge="1">
          <mxGeometry width="50" height="50" relative="1" as="geometry">
            <mxPoint x="181" y="538" as="sourcePoint" />
            <mxPoint x="132" y="381" as="targetPoint" />
          </mxGeometry>
        </mxCell>
        <mxCell id="7lXh8CAYZHqnAM5e5lu5-42" value="" style="endArrow=none;html=1;rounded=0;exitX=0;exitY=0.5;exitDx=0;exitDy=0;entryX=0;entryY=0.5;entryDx=0;entryDy=0;edgeStyle=orthogonalEdgeStyle;fontSize=14;" parent="1" source="7lXh8CAYZHqnAM5e5lu5-18" target="7lXh8CAYZHqnAM5e5lu5-20" edge="1">
          <mxGeometry width="50" height="50" relative="1" as="geometry">
            <mxPoint x="181" y="538" as="sourcePoint" />
            <mxPoint x="231" y="488" as="targetPoint" />
          </mxGeometry>
        </mxCell>
        <mxCell id="7lXh8CAYZHqnAM5e5lu5-43" value="" style="endArrow=none;html=1;rounded=0;exitX=0;exitY=0.5;exitDx=0;exitDy=0;entryX=0;entryY=0.5;entryDx=0;entryDy=0;edgeStyle=orthogonalEdgeStyle;fontSize=14;" parent="1" source="7lXh8CAYZHqnAM5e5lu5-18" target="7lXh8CAYZHqnAM5e5lu5-21" edge="1">
          <mxGeometry width="50" height="50" relative="1" as="geometry">
            <mxPoint x="181" y="538" as="sourcePoint" />
            <mxPoint x="231" y="488" as="targetPoint" />
          </mxGeometry>
        </mxCell>
        <mxCell id="7lXh8CAYZHqnAM5e5lu5-44" value="" style="endArrow=none;html=1;rounded=0;exitX=0;exitY=0.5;exitDx=0;exitDy=0;entryX=0;entryY=0.5;entryDx=0;entryDy=0;edgeStyle=orthogonalEdgeStyle;fontSize=14;" parent="1" source="7lXh8CAYZHqnAM5e5lu5-18" target="7lXh8CAYZHqnAM5e5lu5-22" edge="1">
          <mxGeometry width="50" height="50" relative="1" as="geometry">
            <mxPoint x="181" y="538" as="sourcePoint" />
            <mxPoint x="231" y="488" as="targetPoint" />
          </mxGeometry>
        </mxCell>
        <mxCell id="7lXh8CAYZHqnAM5e5lu5-45" value="" style="endArrow=none;html=1;rounded=0;exitX=0;exitY=0.5;exitDx=0;exitDy=0;entryX=0;entryY=0.5;entryDx=0;entryDy=0;edgeStyle=orthogonalEdgeStyle;fontSize=14;" parent="1" source="7lXh8CAYZHqnAM5e5lu5-18" target="7lXh8CAYZHqnAM5e5lu5-23" edge="1">
          <mxGeometry width="50" height="50" relative="1" as="geometry">
            <mxPoint x="181" y="538" as="sourcePoint" />
            <mxPoint x="231" y="488" as="targetPoint" />
          </mxGeometry>
        </mxCell>
        <mxCell id="7lXh8CAYZHqnAM5e5lu5-46" value="" style="endArrow=none;html=1;rounded=0;exitX=0;exitY=0.5;exitDx=0;exitDy=0;entryX=0;entryY=0.5;entryDx=0;entryDy=0;edgeStyle=orthogonalEdgeStyle;fontSize=14;" parent="1" source="7lXh8CAYZHqnAM5e5lu5-2" target="7lXh8CAYZHqnAM5e5lu5-3" edge="1">
          <mxGeometry width="50" height="50" relative="1" as="geometry">
            <mxPoint x="719" y="538" as="sourcePoint" />
            <mxPoint x="769" y="488" as="targetPoint" />
          </mxGeometry>
        </mxCell>
        <mxCell id="7lXh8CAYZHqnAM5e5lu5-47" value="" style="endArrow=none;html=1;rounded=0;exitX=0;exitY=0.5;exitDx=0;exitDy=0;entryX=0;entryY=0.5;entryDx=0;entryDy=0;edgeStyle=orthogonalEdgeStyle;fontSize=14;" parent="1" source="7lXh8CAYZHqnAM5e5lu5-2" target="7lXh8CAYZHqnAM5e5lu5-5" edge="1">
          <mxGeometry width="50" height="50" relative="1" as="geometry">
            <mxPoint x="439" y="286" as="sourcePoint" />
            <mxPoint x="465" y="374" as="targetPoint" />
          </mxGeometry>
        </mxCell>
        <mxCell id="7lXh8CAYZHqnAM5e5lu5-48" value="" style="endArrow=none;html=1;rounded=0;exitX=0;exitY=0.5;exitDx=0;exitDy=0;entryX=0;entryY=0.5;entryDx=0;entryDy=0;edgeStyle=orthogonalEdgeStyle;fontSize=14;" parent="1" source="7lXh8CAYZHqnAM5e5lu5-2" target="7lXh8CAYZHqnAM5e5lu5-6" edge="1">
          <mxGeometry width="50" height="50" relative="1" as="geometry">
            <mxPoint x="439" y="286" as="sourcePoint" />
            <mxPoint x="465" y="462" as="targetPoint" />
          </mxGeometry>
        </mxCell>
        <mxCell id="7lXh8CAYZHqnAM5e5lu5-49" value="" style="endArrow=none;html=1;rounded=0;exitX=0;exitY=0.5;exitDx=0;exitDy=0;entryX=0;entryY=0.5;entryDx=0;entryDy=0;edgeStyle=orthogonalEdgeStyle;fontSize=14;" parent="1" source="7lXh8CAYZHqnAM5e5lu5-2" target="7lXh8CAYZHqnAM5e5lu5-7" edge="1">
          <mxGeometry width="50" height="50" relative="1" as="geometry">
            <mxPoint x="439" y="286" as="sourcePoint" />
            <mxPoint x="465" y="550" as="targetPoint" />
          </mxGeometry>
        </mxCell>
        <mxCell id="7lXh8CAYZHqnAM5e5lu5-50" value="" style="endArrow=none;html=1;rounded=0;exitX=0;exitY=0.5;exitDx=0;exitDy=0;entryX=0;entryY=0.5;entryDx=0;entryDy=0;edgeStyle=orthogonalEdgeStyle;fontSize=14;" parent="1" source="7lXh8CAYZHqnAM5e5lu5-8" target="7lXh8CAYZHqnAM5e5lu5-9" edge="1">
          <mxGeometry width="50" height="50" relative="1" as="geometry">
            <mxPoint x="449" y="296" as="sourcePoint" />
            <mxPoint x="475" y="560" as="targetPoint" />
          </mxGeometry>
        </mxCell>
        <mxCell id="7lXh8CAYZHqnAM5e5lu5-51" value="" style="endArrow=none;html=1;rounded=0;exitX=0;exitY=0.5;exitDx=0;exitDy=0;entryX=0;entryY=0.5;entryDx=0;entryDy=0;edgeStyle=orthogonalEdgeStyle;fontSize=14;" parent="1" source="7lXh8CAYZHqnAM5e5lu5-8" target="7lXh8CAYZHqnAM5e5lu5-10" edge="1">
          <mxGeometry width="50" height="50" relative="1" as="geometry">
            <mxPoint x="710" y="286" as="sourcePoint" />
            <mxPoint x="732" y="374" as="targetPoint" />
          </mxGeometry>
        </mxCell>
        <mxCell id="7lXh8CAYZHqnAM5e5lu5-52" value="" style="endArrow=none;html=1;rounded=0;exitX=0;exitY=0.5;exitDx=0;exitDy=0;entryX=0;entryY=0.5;entryDx=0;entryDy=0;edgeStyle=orthogonalEdgeStyle;fontSize=14;" parent="1" source="7lXh8CAYZHqnAM5e5lu5-8" target="7lXh8CAYZHqnAM5e5lu5-11" edge="1">
          <mxGeometry width="50" height="50" relative="1" as="geometry">
            <mxPoint x="710" y="286" as="sourcePoint" />
            <mxPoint x="732" y="462" as="targetPoint" />
          </mxGeometry>
        </mxCell>
        <mxCell id="7lXh8CAYZHqnAM5e5lu5-53" value="" style="endArrow=none;html=1;rounded=0;exitX=0;exitY=0.5;exitDx=0;exitDy=0;entryX=0;entryY=0.5;entryDx=0;entryDy=0;edgeStyle=orthogonalEdgeStyle;fontSize=14;" parent="1" source="7lXh8CAYZHqnAM5e5lu5-24" target="7lXh8CAYZHqnAM5e5lu5-25" edge="1">
          <mxGeometry width="50" height="50" relative="1" as="geometry">
            <mxPoint x="710" y="286" as="sourcePoint" />
            <mxPoint x="732" y="550" as="targetPoint" />
          </mxGeometry>
        </mxCell>
        <mxCell id="7lXh8CAYZHqnAM5e5lu5-54" value="" style="endArrow=none;html=1;rounded=0;exitX=0;exitY=0.5;exitDx=0;exitDy=0;entryX=0;entryY=0.5;entryDx=0;entryDy=0;edgeStyle=orthogonalEdgeStyle;fontSize=14;" parent="1" source="7lXh8CAYZHqnAM5e5lu5-24" target="7lXh8CAYZHqnAM5e5lu5-28" edge="1">
          <mxGeometry width="50" height="50" relative="1" as="geometry">
            <mxPoint x="967" y="286" as="sourcePoint" />
            <mxPoint x="989" y="374" as="targetPoint" />
          </mxGeometry>
        </mxCell>
        <mxCell id="7lXh8CAYZHqnAM5e5lu5-55" value="" style="endArrow=none;html=1;rounded=0;exitX=0;exitY=0.5;exitDx=0;exitDy=0;entryX=0;entryY=0.5;entryDx=0;entryDy=0;edgeStyle=orthogonalEdgeStyle;fontSize=14;" parent="1" source="7lXh8CAYZHqnAM5e5lu5-24" target="7lXh8CAYZHqnAM5e5lu5-26" edge="1">
          <mxGeometry width="50" height="50" relative="1" as="geometry">
            <mxPoint x="967" y="286" as="sourcePoint" />
            <mxPoint x="989" y="462" as="targetPoint" />
          </mxGeometry>
        </mxCell>
        <mxCell id="7lXh8CAYZHqnAM5e5lu5-56" value="" style="endArrow=none;html=1;rounded=0;exitX=0;exitY=0.5;exitDx=0;exitDy=0;entryX=0;entryY=0.5;entryDx=0;entryDy=0;edgeStyle=orthogonalEdgeStyle;fontSize=14;" parent="1" source="7lXh8CAYZHqnAM5e5lu5-24" target="7lXh8CAYZHqnAM5e5lu5-27" edge="1">
          <mxGeometry width="50" height="50" relative="1" as="geometry">
            <mxPoint x="967" y="286" as="sourcePoint" />
            <mxPoint x="989" y="550" as="targetPoint" />
          </mxGeometry>
        </mxCell>
        <mxCell id="7lXh8CAYZHqnAM5e5lu5-57" value="" style="endArrow=none;html=1;rounded=0;exitX=0;exitY=0.5;exitDx=0;exitDy=0;entryX=0;entryY=0.5;entryDx=0;entryDy=0;edgeStyle=orthogonalEdgeStyle;fontSize=14;" parent="1" source="7lXh8CAYZHqnAM5e5lu5-24" target="7lXh8CAYZHqnAM5e5lu5-31" edge="1">
          <mxGeometry width="50" height="50" relative="1" as="geometry">
            <mxPoint x="967" y="286" as="sourcePoint" />
            <mxPoint x="989" y="638" as="targetPoint" />
          </mxGeometry>
        </mxCell>
        <mxCell id="7lXh8CAYZHqnAM5e5lu5-60" value="" style="endArrow=none;html=1;rounded=0;exitX=0;exitY=0.5;exitDx=0;exitDy=0;entryX=0;entryY=0.5;entryDx=0;entryDy=0;edgeStyle=orthogonalEdgeStyle;fontSize=14;" parent="1" source="7lXh8CAYZHqnAM5e5lu5-24" target="7lXh8CAYZHqnAM5e5lu5-30" edge="1">
          <mxGeometry width="50" height="50" relative="1" as="geometry">
            <mxPoint x="967" y="286" as="sourcePoint" />
            <mxPoint x="989" y="815" as="targetPoint" />
          </mxGeometry>
        </mxCell>
        <mxCell id="D4fzdsL0mqHl7-LnF-4_-1" value="Đăng kí tài khoản" style="rounded=0;whiteSpace=wrap;html=1;fontSize=14;" vertex="1" parent="1">
          <mxGeometry x="455" y="686" width="159" height="60" as="geometry" />
        </mxCell>
        <mxCell id="D4fzdsL0mqHl7-LnF-4_-2" value="Quên mật khẩu" style="rounded=0;whiteSpace=wrap;html=1;fontSize=14;" vertex="1" parent="1">
          <mxGeometry x="455" y="775" width="159" height="60" as="geometry" />
        </mxCell>
        <mxCell id="D4fzdsL0mqHl7-LnF-4_-3" value="Đặt chỗ tài liệu" style="rounded=0;whiteSpace=wrap;html=1;fontSize=14;" vertex="1" parent="1">
          <mxGeometry x="190" y="775" width="159" height="60" as="geometry" />
        </mxCell>
        <mxCell id="D4fzdsL0mqHl7-LnF-4_-4" value="" style="endArrow=none;html=1;rounded=0;exitX=0;exitY=0.5;exitDx=0;exitDy=0;entryX=0;entryY=0.5;entryDx=0;entryDy=0;edgeStyle=orthogonalEdgeStyle;fontSize=14;" edge="1" parent="1" source="7lXh8CAYZHqnAM5e5lu5-2" target="D4fzdsL0mqHl7-LnF-4_-1">
          <mxGeometry width="50" height="50" relative="1" as="geometry">
            <mxPoint x="439" y="286" as="sourcePoint" />
            <mxPoint x="465" y="638" as="targetPoint" />
          </mxGeometry>
        </mxCell>
        <mxCell id="D4fzdsL0mqHl7-LnF-4_-5" value="" style="endArrow=none;html=1;rounded=0;exitX=0;exitY=0.5;exitDx=0;exitDy=0;entryX=0;entryY=0.5;entryDx=0;entryDy=0;edgeStyle=orthogonalEdgeStyle;fontSize=14;" edge="1" parent="1" source="7lXh8CAYZHqnAM5e5lu5-2" target="D4fzdsL0mqHl7-LnF-4_-2">
          <mxGeometry width="50" height="50" relative="1" as="geometry">
            <mxPoint x="439" y="286" as="sourcePoint" />
            <mxPoint x="465" y="726" as="targetPoint" />
          </mxGeometry>
        </mxCell>
        <mxCell id="D4fzdsL0mqHl7-LnF-4_-6" value="" style="endArrow=none;html=1;rounded=0;exitX=0;exitY=0.5;exitDx=0;exitDy=0;entryX=0;entryY=0.5;entryDx=0;entryDy=0;edgeStyle=orthogonalEdgeStyle;fontSize=14;" edge="1" parent="1" source="7lXh8CAYZHqnAM5e5lu5-18" target="D4fzdsL0mqHl7-LnF-4_-3">
          <mxGeometry width="50" height="50" relative="1" as="geometry">
            <mxPoint x="439" y="286" as="sourcePoint" />
            <mxPoint x="465" y="815" as="targetPoint" />
          </mxGeometry>
        </mxCell>
      </root>
    </mxGraphModel>
  </diagram>
  <diagram id="BrClllQGVnvQygQh08Wt" name="Usecase">
    <mxGraphModel dx="3133" dy="1960" grid="0" gridSize="10" guides="1" tooltips="1" connect="1" arrows="1" fold="1" page="0" pageScale="1" pageWidth="827" pageHeight="1169" math="0" shadow="0">
      <root>
        <mxCell id="0" />
        <mxCell id="1" parent="0" />
        <mxCell id="H5rTBziyyxjk62CYWGia-1" value="Quản lý" style="shape=umlActor;verticalLabelPosition=bottom;verticalAlign=top;html=1;outlineConnect=0;fontSize=14;" parent="1" vertex="1">
          <mxGeometry x="-766" y="94" width="30" height="60" as="geometry" />
        </mxCell>
        <mxCell id="H5rTBziyyxjk62CYWGia-2" value="Người dùng" style="shape=umlActor;verticalLabelPosition=bottom;verticalAlign=top;html=1;outlineConnect=0;fontSize=14;" parent="1" vertex="1">
          <mxGeometry x="666" y="94" width="30" height="60" as="geometry" />
        </mxCell>
        <mxCell id="gG5vlGDZjspnBYPUKVHE-23" value="Thêm, sửa, xóa chương trình đào tạo" style="ellipse;whiteSpace=wrap;html=1;fontSize=14;" parent="1" vertex="1">
          <mxGeometry x="-420" y="-434" width="120" height="80" as="geometry" />
        </mxCell>
        <mxCell id="gG5vlGDZjspnBYPUKVHE-24" value="Tìm kiếm học phần theo chương trình đào tạo" style="ellipse;whiteSpace=wrap;html=1;fontSize=14;" parent="1" vertex="1">
          <mxGeometry x="-108" y="-434" width="120" height="80" as="geometry" />
        </mxCell>
        <mxCell id="gG5vlGDZjspnBYPUKVHE-25" value="Thêm, sửa, xóa học phần" style="ellipse;whiteSpace=wrap;html=1;fontSize=14;" parent="1" vertex="1">
          <mxGeometry x="-261" y="-434" width="120" height="80" as="geometry" />
        </mxCell>
        <mxCell id="gG5vlGDZjspnBYPUKVHE-26" value="&lt;span style=&quot;color: rgb(0, 0, 0); font-family: Helvetica; font-size: 14px; font-style: normal; font-variant-ligatures: normal; font-variant-caps: normal; font-weight: 400; letter-spacing: normal; orphans: 2; text-align: center; text-indent: 0px; text-transform: none; widows: 2; word-spacing: 0px; -webkit-text-stroke-width: 0px; background-color: rgb(255, 255, 255); text-decoration-thickness: initial; text-decoration-style: initial; text-decoration-color: initial; float: none; display: inline !important;&quot;&gt;Thêm, sửa, xóa tài liệu&lt;/span&gt;" style="ellipse;whiteSpace=wrap;html=1;fontSize=14;" parent="1" vertex="1">
          <mxGeometry x="61" y="-434" width="120" height="80" as="geometry" />
        </mxCell>
        <mxCell id="gG5vlGDZjspnBYPUKVHE-38" value="Thêm, sửa, xóa người dùng" style="ellipse;whiteSpace=wrap;html=1;fontSize=14;" parent="1" vertex="1">
          <mxGeometry x="-671" y="757" width="120" height="80" as="geometry" />
        </mxCell>
        <mxCell id="gG5vlGDZjspnBYPUKVHE-39" value="Tìm kiếm người dùng" style="ellipse;whiteSpace=wrap;html=1;fontSize=14;" parent="1" vertex="1">
          <mxGeometry x="-558" y="-437" width="120" height="80" as="geometry" />
        </mxCell>
        <mxCell id="gG5vlGDZjspnBYPUKVHE-41" value="Đăng nhập, đăng xuất" style="ellipse;whiteSpace=wrap;html=1;fontSize=14;" parent="1" vertex="1">
          <mxGeometry x="71" y="-323" width="120" height="80" as="geometry" />
        </mxCell>
        <mxCell id="gG5vlGDZjspnBYPUKVHE-42" value="Đổi mật khẩu" style="ellipse;whiteSpace=wrap;html=1;fontSize=14;" parent="1" vertex="1">
          <mxGeometry x="61" y="671" width="120" height="80" as="geometry" />
        </mxCell>
        <mxCell id="gG5vlGDZjspnBYPUKVHE-43" value="Thêm, sửa, xóa thông báo" style="ellipse;whiteSpace=wrap;html=1;fontSize=14;" parent="1" vertex="1">
          <mxGeometry x="-107" y="764" width="120" height="80" as="geometry" />
        </mxCell>
        <mxCell id="gG5vlGDZjspnBYPUKVHE-44" value="Xem danh sách thông báo" style="ellipse;whiteSpace=wrap;html=1;fontSize=14;" parent="1" vertex="1">
          <mxGeometry x="71" y="-211" width="120" height="80" as="geometry" />
        </mxCell>
        <mxCell id="gG5vlGDZjspnBYPUKVHE-46" value="Xem chi tiết thông báo" style="ellipse;whiteSpace=wrap;html=1;fontSize=14;" parent="1" vertex="1">
          <mxGeometry x="71" y="-100" width="120" height="80" as="geometry" />
        </mxCell>
        <mxCell id="gG5vlGDZjspnBYPUKVHE-47" value="Tạo góp ý,&amp;nbsp;bổ sung tài liệu" style="ellipse;whiteSpace=wrap;html=1;fontSize=14;" parent="1" vertex="1">
          <mxGeometry x="61" y="568" width="120" height="80" as="geometry" />
        </mxCell>
        <mxCell id="gG5vlGDZjspnBYPUKVHE-48" value="Tạo yêu cầu gia hạn tài liệu" style="ellipse;whiteSpace=wrap;html=1;fontSize=14;" parent="1" vertex="1">
          <mxGeometry x="228" y="767" width="120" height="80" as="geometry" />
        </mxCell>
        <mxCell id="gG5vlGDZjspnBYPUKVHE-49" value="Thêm, xóa, sửa thăm dò" style="ellipse;whiteSpace=wrap;html=1;fontSize=14;" parent="1" vertex="1">
          <mxGeometry x="71" y="6" width="120" height="80" as="geometry" />
        </mxCell>
        <mxCell id="gG5vlGDZjspnBYPUKVHE-50" value="Bỏ phiếu thăm dò ý kiến" style="ellipse;whiteSpace=wrap;html=1;fontSize=14;" parent="1" vertex="1">
          <mxGeometry x="377" y="764" width="120" height="80" as="geometry" />
        </mxCell>
        <mxCell id="gG5vlGDZjspnBYPUKVHE-51" value="Xem, xóa yêu cầu" style="ellipse;whiteSpace=wrap;html=1;fontSize=14;" parent="1" vertex="1">
          <mxGeometry x="-530" y="759" width="120" height="80" as="geometry" />
        </mxCell>
        <mxCell id="gG5vlGDZjspnBYPUKVHE-52" value="Trả lời yêu cầu qua email" style="ellipse;whiteSpace=wrap;html=1;fontSize=14;" parent="1" vertex="1">
          <mxGeometry x="-250" y="759" width="120" height="80" as="geometry" />
        </mxCell>
        <mxCell id="gG5vlGDZjspnBYPUKVHE-53" value="Thông báo yêu cầu mới" style="ellipse;whiteSpace=wrap;html=1;fontSize=14;" parent="1" vertex="1">
          <mxGeometry x="-395" y="759" width="120" height="80" as="geometry" />
        </mxCell>
        <mxCell id="gG5vlGDZjspnBYPUKVHE-58" value="Tìm kiếm tài liệu theo môn, theo từ khóa" style="ellipse;whiteSpace=wrap;html=1;fontSize=14;" parent="1" vertex="1">
          <mxGeometry x="71" y="116" width="120" height="80" as="geometry" />
        </mxCell>
        <mxCell id="gG5vlGDZjspnBYPUKVHE-59" value="Xem danh sách tài liệu" style="ellipse;whiteSpace=wrap;html=1;fontSize=14;" parent="1" vertex="1">
          <mxGeometry x="74" y="223" width="120" height="80" as="geometry" />
        </mxCell>
        <mxCell id="gG5vlGDZjspnBYPUKVHE-61" value="Chi tiết tài liệu" style="ellipse;whiteSpace=wrap;html=1;fontSize=14;" parent="1" vertex="1">
          <mxGeometry x="71" y="333" width="120" height="80" as="geometry" />
        </mxCell>
        <mxCell id="gG5vlGDZjspnBYPUKVHE-62" value="Tải tài liệu" style="ellipse;whiteSpace=wrap;html=1;fontSize=14;" parent="1" vertex="1">
          <mxGeometry x="71" y="443" width="120" height="80" as="geometry" />
        </mxCell>
        <mxCell id="gG5vlGDZjspnBYPUKVHE-65" value="" style="endArrow=none;html=1;rounded=0;exitX=0.5;exitY=1;exitDx=0;exitDy=0;entryX=1;entryY=0.3333333333333333;entryDx=0;entryDy=0;entryPerimeter=0;fontSize=14;" parent="1" source="gG5vlGDZjspnBYPUKVHE-23" target="H5rTBziyyxjk62CYWGia-1" edge="1">
          <mxGeometry width="50" height="50" relative="1" as="geometry">
            <mxPoint x="43" y="254" as="sourcePoint" />
            <mxPoint x="93" y="204" as="targetPoint" />
          </mxGeometry>
        </mxCell>
        <mxCell id="gG5vlGDZjspnBYPUKVHE-66" value="" style="endArrow=none;html=1;rounded=0;exitX=1;exitY=0.3333333333333333;exitDx=0;exitDy=0;exitPerimeter=0;entryX=0.5;entryY=1;entryDx=0;entryDy=0;fontSize=14;" parent="1" source="H5rTBziyyxjk62CYWGia-1" target="gG5vlGDZjspnBYPUKVHE-25" edge="1">
          <mxGeometry width="50" height="50" relative="1" as="geometry">
            <mxPoint x="43" y="64" as="sourcePoint" />
            <mxPoint x="93" y="14" as="targetPoint" />
          </mxGeometry>
        </mxCell>
        <mxCell id="gG5vlGDZjspnBYPUKVHE-67" value="" style="endArrow=none;html=1;rounded=0;exitX=1;exitY=0.3333333333333333;exitDx=0;exitDy=0;exitPerimeter=0;entryX=0.5;entryY=1;entryDx=0;entryDy=0;fontSize=14;" parent="1" source="H5rTBziyyxjk62CYWGia-1" target="gG5vlGDZjspnBYPUKVHE-24" edge="1">
          <mxGeometry width="50" height="50" relative="1" as="geometry">
            <mxPoint x="43" y="64" as="sourcePoint" />
            <mxPoint x="93" y="14" as="targetPoint" />
          </mxGeometry>
        </mxCell>
        <mxCell id="gG5vlGDZjspnBYPUKVHE-68" value="" style="endArrow=none;html=1;rounded=0;exitX=1;exitY=0.3333333333333333;exitDx=0;exitDy=0;exitPerimeter=0;entryX=0;entryY=1;entryDx=0;entryDy=0;fontSize=14;" parent="1" source="H5rTBziyyxjk62CYWGia-1" target="gG5vlGDZjspnBYPUKVHE-26" edge="1">
          <mxGeometry width="50" height="50" relative="1" as="geometry">
            <mxPoint x="43" y="159" as="sourcePoint" />
            <mxPoint x="93" y="109" as="targetPoint" />
          </mxGeometry>
        </mxCell>
        <mxCell id="gG5vlGDZjspnBYPUKVHE-69" value="" style="endArrow=none;html=1;rounded=0;exitX=1;exitY=0.3333333333333333;exitDx=0;exitDy=0;exitPerimeter=0;entryX=0.5;entryY=0;entryDx=0;entryDy=0;fontSize=14;" parent="1" source="H5rTBziyyxjk62CYWGia-1" target="gG5vlGDZjspnBYPUKVHE-38" edge="1">
          <mxGeometry width="50" height="50" relative="1" as="geometry">
            <mxPoint x="43" y="159" as="sourcePoint" />
            <mxPoint x="93" y="109" as="targetPoint" />
          </mxGeometry>
        </mxCell>
        <mxCell id="gG5vlGDZjspnBYPUKVHE-70" value="" style="endArrow=none;html=1;rounded=0;exitX=1;exitY=0.3333333333333333;exitDx=0;exitDy=0;exitPerimeter=0;entryX=0.5;entryY=1;entryDx=0;entryDy=0;fontSize=14;" parent="1" source="H5rTBziyyxjk62CYWGia-1" target="gG5vlGDZjspnBYPUKVHE-39" edge="1">
          <mxGeometry width="50" height="50" relative="1" as="geometry">
            <mxPoint x="43" y="349" as="sourcePoint" />
            <mxPoint x="93" y="299" as="targetPoint" />
          </mxGeometry>
        </mxCell>
        <mxCell id="gG5vlGDZjspnBYPUKVHE-71" value="" style="endArrow=none;html=1;rounded=0;entryX=0;entryY=0;entryDx=0;entryDy=0;exitX=1;exitY=0.3333333333333333;exitDx=0;exitDy=0;exitPerimeter=0;fontSize=14;" parent="1" source="H5rTBziyyxjk62CYWGia-1" target="gG5vlGDZjspnBYPUKVHE-43" edge="1">
          <mxGeometry width="50" height="50" relative="1" as="geometry">
            <mxPoint x="-257" y="99" as="sourcePoint" />
            <mxPoint x="-34" y="180" as="targetPoint" />
          </mxGeometry>
        </mxCell>
        <mxCell id="gG5vlGDZjspnBYPUKVHE-72" value="" style="endArrow=none;html=1;rounded=0;entryX=0.5;entryY=0;entryDx=0;entryDy=0;exitX=1;exitY=0.3333333333333333;exitDx=0;exitDy=0;exitPerimeter=0;fontSize=14;" parent="1" source="H5rTBziyyxjk62CYWGia-1" target="gG5vlGDZjspnBYPUKVHE-51" edge="1">
          <mxGeometry width="50" height="50" relative="1" as="geometry">
            <mxPoint x="-251" y="131" as="sourcePoint" />
            <mxPoint x="-34" y="292" as="targetPoint" />
          </mxGeometry>
        </mxCell>
        <mxCell id="gG5vlGDZjspnBYPUKVHE-73" value="" style="endArrow=none;html=1;rounded=0;entryX=0.5;entryY=0;entryDx=0;entryDy=0;exitX=1;exitY=0.3333333333333333;exitDx=0;exitDy=0;exitPerimeter=0;fontSize=14;" parent="1" source="H5rTBziyyxjk62CYWGia-1" target="gG5vlGDZjspnBYPUKVHE-52" edge="1">
          <mxGeometry width="50" height="50" relative="1" as="geometry">
            <mxPoint x="-251" y="131" as="sourcePoint" />
            <mxPoint x="-34" y="400" as="targetPoint" />
          </mxGeometry>
        </mxCell>
        <mxCell id="gG5vlGDZjspnBYPUKVHE-77" value="" style="endArrow=none;html=1;rounded=0;entryX=0.5;entryY=0;entryDx=0;entryDy=0;exitX=1;exitY=0.3333333333333333;exitDx=0;exitDy=0;exitPerimeter=0;fontSize=14;" parent="1" source="H5rTBziyyxjk62CYWGia-1" target="gG5vlGDZjspnBYPUKVHE-53" edge="1">
          <mxGeometry width="50" height="50" relative="1" as="geometry">
            <mxPoint x="-251" y="131" as="sourcePoint" />
            <mxPoint x="-34" y="516" as="targetPoint" />
          </mxGeometry>
        </mxCell>
        <mxCell id="gG5vlGDZjspnBYPUKVHE-78" value="" style="endArrow=none;html=1;rounded=0;exitX=0;exitY=0.5;exitDx=0;exitDy=0;entryX=1;entryY=0.3333333333333333;entryDx=0;entryDy=0;entryPerimeter=0;fontSize=14;" parent="1" source="gG5vlGDZjspnBYPUKVHE-41" target="H5rTBziyyxjk62CYWGia-1" edge="1">
          <mxGeometry width="50" height="50" relative="1" as="geometry">
            <mxPoint x="48" y="-101" as="sourcePoint" />
            <mxPoint x="98" y="-151" as="targetPoint" />
          </mxGeometry>
        </mxCell>
        <mxCell id="gG5vlGDZjspnBYPUKVHE-80" value="" style="endArrow=none;html=1;rounded=0;exitX=0;exitY=0.5;exitDx=0;exitDy=0;entryX=1;entryY=0.3333333333333333;entryDx=0;entryDy=0;entryPerimeter=0;fontSize=14;" parent="1" source="gG5vlGDZjspnBYPUKVHE-44" target="H5rTBziyyxjk62CYWGia-1" edge="1">
          <mxGeometry width="50" height="50" relative="1" as="geometry">
            <mxPoint x="81" y="-273" as="sourcePoint" />
            <mxPoint x="-344" y="50" as="targetPoint" />
          </mxGeometry>
        </mxCell>
        <mxCell id="gG5vlGDZjspnBYPUKVHE-81" value="" style="endArrow=none;html=1;rounded=0;exitX=0;exitY=0.5;exitDx=0;exitDy=0;entryX=1;entryY=0.3333333333333333;entryDx=0;entryDy=0;entryPerimeter=0;fontSize=14;" parent="1" source="gG5vlGDZjspnBYPUKVHE-46" target="H5rTBziyyxjk62CYWGia-1" edge="1">
          <mxGeometry width="50" height="50" relative="1" as="geometry">
            <mxPoint x="81" y="-161" as="sourcePoint" />
            <mxPoint x="-348" y="124" as="targetPoint" />
          </mxGeometry>
        </mxCell>
        <mxCell id="gG5vlGDZjspnBYPUKVHE-82" value="" style="endArrow=none;html=1;rounded=0;exitX=0;exitY=0.5;exitDx=0;exitDy=0;entryX=1;entryY=0.3333333333333333;entryDx=0;entryDy=0;entryPerimeter=0;fontSize=14;" parent="1" source="gG5vlGDZjspnBYPUKVHE-49" target="H5rTBziyyxjk62CYWGia-1" edge="1">
          <mxGeometry width="50" height="50" relative="1" as="geometry">
            <mxPoint x="81" y="-50" as="sourcePoint" />
            <mxPoint x="-338" y="134" as="targetPoint" />
          </mxGeometry>
        </mxCell>
        <mxCell id="gG5vlGDZjspnBYPUKVHE-83" value="" style="endArrow=none;html=1;rounded=0;exitX=0;exitY=0.5;exitDx=0;exitDy=0;entryX=1;entryY=0.3333333333333333;entryDx=0;entryDy=0;entryPerimeter=0;fontSize=14;" parent="1" source="gG5vlGDZjspnBYPUKVHE-58" target="H5rTBziyyxjk62CYWGia-1" edge="1">
          <mxGeometry width="50" height="50" relative="1" as="geometry">
            <mxPoint x="81" y="56" as="sourcePoint" />
            <mxPoint x="-348" y="124" as="targetPoint" />
          </mxGeometry>
        </mxCell>
        <mxCell id="gG5vlGDZjspnBYPUKVHE-84" value="" style="endArrow=none;html=1;rounded=0;exitX=0;exitY=0.5;exitDx=0;exitDy=0;entryX=1;entryY=0.3333333333333333;entryDx=0;entryDy=0;entryPerimeter=0;fontSize=14;" parent="1" source="gG5vlGDZjspnBYPUKVHE-59" target="H5rTBziyyxjk62CYWGia-1" edge="1">
          <mxGeometry width="50" height="50" relative="1" as="geometry">
            <mxPoint x="81" y="166" as="sourcePoint" />
            <mxPoint x="-338" y="134" as="targetPoint" />
          </mxGeometry>
        </mxCell>
        <mxCell id="gG5vlGDZjspnBYPUKVHE-85" value="" style="endArrow=none;html=1;rounded=0;exitX=0;exitY=0.5;exitDx=0;exitDy=0;entryX=1;entryY=0.3333333333333333;entryDx=0;entryDy=0;entryPerimeter=0;fontSize=14;" parent="1" source="gG5vlGDZjspnBYPUKVHE-61" target="H5rTBziyyxjk62CYWGia-1" edge="1">
          <mxGeometry width="50" height="50" relative="1" as="geometry">
            <mxPoint x="84" y="273" as="sourcePoint" />
            <mxPoint x="-328" y="144" as="targetPoint" />
          </mxGeometry>
        </mxCell>
        <mxCell id="gG5vlGDZjspnBYPUKVHE-86" value="" style="endArrow=none;html=1;rounded=0;exitX=0;exitY=0.5;exitDx=0;exitDy=0;entryX=1;entryY=0.3333333333333333;entryDx=0;entryDy=0;entryPerimeter=0;fontSize=14;" parent="1" source="gG5vlGDZjspnBYPUKVHE-62" target="H5rTBziyyxjk62CYWGia-1" edge="1">
          <mxGeometry width="50" height="50" relative="1" as="geometry">
            <mxPoint x="81" y="383" as="sourcePoint" />
            <mxPoint x="-348" y="124" as="targetPoint" />
          </mxGeometry>
        </mxCell>
        <mxCell id="gG5vlGDZjspnBYPUKVHE-87" value="" style="endArrow=none;html=1;rounded=0;exitX=0;exitY=0.5;exitDx=0;exitDy=0;entryX=1;entryY=0.3333333333333333;entryDx=0;entryDy=0;entryPerimeter=0;fontSize=14;" parent="1" source="gG5vlGDZjspnBYPUKVHE-47" target="H5rTBziyyxjk62CYWGia-1" edge="1">
          <mxGeometry width="50" height="50" relative="1" as="geometry">
            <mxPoint x="81" y="493" as="sourcePoint" />
            <mxPoint x="-338" y="134" as="targetPoint" />
          </mxGeometry>
        </mxCell>
        <mxCell id="gG5vlGDZjspnBYPUKVHE-88" value="" style="endArrow=none;html=1;rounded=0;exitX=0;exitY=0.5;exitDx=0;exitDy=0;entryX=1;entryY=0.3333333333333333;entryDx=0;entryDy=0;entryPerimeter=0;fontSize=14;" parent="1" source="gG5vlGDZjspnBYPUKVHE-42" target="H5rTBziyyxjk62CYWGia-1" edge="1">
          <mxGeometry width="50" height="50" relative="1" as="geometry">
            <mxPoint x="71" y="618" as="sourcePoint" />
            <mxPoint x="-348" y="124" as="targetPoint" />
          </mxGeometry>
        </mxCell>
        <mxCell id="gG5vlGDZjspnBYPUKVHE-89" value="" style="endArrow=none;html=1;rounded=0;exitX=0.5;exitY=0;exitDx=0;exitDy=0;entryX=0;entryY=0.3333333333333333;entryDx=0;entryDy=0;entryPerimeter=0;fontSize=14;" parent="1" source="gG5vlGDZjspnBYPUKVHE-48" target="H5rTBziyyxjk62CYWGia-2" edge="1">
          <mxGeometry width="50" height="50" relative="1" as="geometry">
            <mxPoint x="279" y="262" as="sourcePoint" />
            <mxPoint x="329" y="212" as="targetPoint" />
          </mxGeometry>
        </mxCell>
        <mxCell id="gG5vlGDZjspnBYPUKVHE-90" value="" style="endArrow=none;html=1;rounded=0;exitX=0.5;exitY=0;exitDx=0;exitDy=0;entryX=0;entryY=0.3333333333333333;entryDx=0;entryDy=0;entryPerimeter=0;fontSize=14;" parent="1" source="gG5vlGDZjspnBYPUKVHE-50" target="H5rTBziyyxjk62CYWGia-2" edge="1">
          <mxGeometry width="50" height="50" relative="1" as="geometry">
            <mxPoint x="405" y="78" as="sourcePoint" />
            <mxPoint x="676" y="124" as="targetPoint" />
          </mxGeometry>
        </mxCell>
        <mxCell id="gG5vlGDZjspnBYPUKVHE-91" value="" style="endArrow=none;html=1;rounded=0;exitX=1;exitY=0.5;exitDx=0;exitDy=0;entryX=0;entryY=0.3333333333333333;entryDx=0;entryDy=0;entryPerimeter=0;fontSize=14;" parent="1" source="gG5vlGDZjspnBYPUKVHE-47" target="H5rTBziyyxjk62CYWGia-2" edge="1">
          <mxGeometry width="50" height="50" relative="1" as="geometry">
            <mxPoint x="413" y="627" as="sourcePoint" />
            <mxPoint x="676" y="124" as="targetPoint" />
          </mxGeometry>
        </mxCell>
        <mxCell id="gG5vlGDZjspnBYPUKVHE-92" value="" style="endArrow=none;html=1;rounded=0;exitX=1;exitY=0.5;exitDx=0;exitDy=0;entryX=0;entryY=0.3333333333333333;entryDx=0;entryDy=0;entryPerimeter=0;fontSize=14;" parent="1" source="gG5vlGDZjspnBYPUKVHE-42" target="H5rTBziyyxjk62CYWGia-2" edge="1">
          <mxGeometry width="50" height="50" relative="1" as="geometry">
            <mxPoint x="191" y="618" as="sourcePoint" />
            <mxPoint x="686" y="134" as="targetPoint" />
          </mxGeometry>
        </mxCell>
        <mxCell id="gG5vlGDZjspnBYPUKVHE-93" value="" style="endArrow=none;html=1;rounded=0;exitX=1;exitY=0.5;exitDx=0;exitDy=0;entryX=0;entryY=0.3333333333333333;entryDx=0;entryDy=0;entryPerimeter=0;fontSize=14;" parent="1" source="gG5vlGDZjspnBYPUKVHE-61" target="H5rTBziyyxjk62CYWGia-2" edge="1">
          <mxGeometry width="50" height="50" relative="1" as="geometry">
            <mxPoint x="191" y="721" as="sourcePoint" />
            <mxPoint x="696" y="144" as="targetPoint" />
          </mxGeometry>
        </mxCell>
        <mxCell id="gG5vlGDZjspnBYPUKVHE-94" value="" style="endArrow=none;html=1;rounded=0;exitX=1;exitY=0.5;exitDx=0;exitDy=0;entryX=0;entryY=0.3333333333333333;entryDx=0;entryDy=0;entryPerimeter=0;fontSize=14;" parent="1" source="gG5vlGDZjspnBYPUKVHE-62" target="H5rTBziyyxjk62CYWGia-2" edge="1">
          <mxGeometry width="50" height="50" relative="1" as="geometry">
            <mxPoint x="201" y="383" as="sourcePoint" />
            <mxPoint x="706" y="154" as="targetPoint" />
          </mxGeometry>
        </mxCell>
        <mxCell id="gG5vlGDZjspnBYPUKVHE-96" value="" style="endArrow=none;html=1;rounded=0;exitX=1;exitY=0.5;exitDx=0;exitDy=0;entryX=0;entryY=0.3333333333333333;entryDx=0;entryDy=0;entryPerimeter=0;fontSize=14;" parent="1" source="gG5vlGDZjspnBYPUKVHE-59" target="H5rTBziyyxjk62CYWGia-2" edge="1">
          <mxGeometry width="50" height="50" relative="1" as="geometry">
            <mxPoint x="201" y="493" as="sourcePoint" />
            <mxPoint x="716" y="164" as="targetPoint" />
          </mxGeometry>
        </mxCell>
        <mxCell id="gG5vlGDZjspnBYPUKVHE-97" value="" style="endArrow=none;html=1;rounded=0;exitX=1;exitY=0.5;exitDx=0;exitDy=0;entryX=0;entryY=0.3333333333333333;entryDx=0;entryDy=0;entryPerimeter=0;fontSize=14;" parent="1" source="gG5vlGDZjspnBYPUKVHE-49" target="H5rTBziyyxjk62CYWGia-2" edge="1">
          <mxGeometry width="50" height="50" relative="1" as="geometry">
            <mxPoint x="201" y="493" as="sourcePoint" />
            <mxPoint x="716" y="164" as="targetPoint" />
          </mxGeometry>
        </mxCell>
        <mxCell id="gG5vlGDZjspnBYPUKVHE-98" value="" style="endArrow=none;html=1;rounded=0;exitX=1;exitY=0.5;exitDx=0;exitDy=0;entryX=0;entryY=0.3333333333333333;entryDx=0;entryDy=0;entryPerimeter=0;fontSize=14;" parent="1" source="gG5vlGDZjspnBYPUKVHE-46" target="H5rTBziyyxjk62CYWGia-2" edge="1">
          <mxGeometry width="50" height="50" relative="1" as="geometry">
            <mxPoint x="201" y="56" as="sourcePoint" />
            <mxPoint x="726" y="174" as="targetPoint" />
          </mxGeometry>
        </mxCell>
        <mxCell id="gG5vlGDZjspnBYPUKVHE-99" value="" style="endArrow=none;html=1;rounded=0;exitX=1;exitY=0.5;exitDx=0;exitDy=0;entryX=0;entryY=0.3333333333333333;entryDx=0;entryDy=0;entryPerimeter=0;fontSize=14;" parent="1" source="gG5vlGDZjspnBYPUKVHE-44" target="H5rTBziyyxjk62CYWGia-2" edge="1">
          <mxGeometry width="50" height="50" relative="1" as="geometry">
            <mxPoint x="201" y="-50" as="sourcePoint" />
            <mxPoint x="736" y="184" as="targetPoint" />
          </mxGeometry>
        </mxCell>
        <mxCell id="gG5vlGDZjspnBYPUKVHE-100" value="" style="endArrow=none;html=1;rounded=0;exitX=1;exitY=0.5;exitDx=0;exitDy=0;entryX=0;entryY=0.3333333333333333;entryDx=0;entryDy=0;entryPerimeter=0;fontSize=14;" parent="1" source="gG5vlGDZjspnBYPUKVHE-41" target="H5rTBziyyxjk62CYWGia-2" edge="1">
          <mxGeometry width="50" height="50" relative="1" as="geometry">
            <mxPoint x="201" y="-161" as="sourcePoint" />
            <mxPoint x="746" y="194" as="targetPoint" />
          </mxGeometry>
        </mxCell>
        <mxCell id="gG5vlGDZjspnBYPUKVHE-105" value="" style="rounded=0;whiteSpace=wrap;html=1;fillColor=none;" parent="1" vertex="1">
          <mxGeometry x="-680" y="-517" width="1290" height="1385" as="geometry" />
        </mxCell>
        <mxCell id="gG5vlGDZjspnBYPUKVHE-106" value="Hệ thống&amp;nbsp;tra cứu tài liệu trực tuyến" style="rounded=0;whiteSpace=wrap;html=1;fontSize=14;fontStyle=0" parent="1" vertex="1">
          <mxGeometry x="-678" y="-517" width="241" height="60" as="geometry" />
        </mxCell>
        <mxCell id="2G5A5zgPDYhL5ciLziu--1" value="Quên mật khẩu" style="ellipse;whiteSpace=wrap;html=1;fontSize=14;" vertex="1" parent="1">
          <mxGeometry x="61" y="773" width="120" height="80" as="geometry" />
        </mxCell>
        <mxCell id="2G5A5zgPDYhL5ciLziu--2" value="Đăng kí tài khoản" style="ellipse;whiteSpace=wrap;html=1;fontSize=14;" vertex="1" parent="1">
          <mxGeometry x="373" y="-439" width="116" height="80" as="geometry" />
        </mxCell>
        <mxCell id="2G5A5zgPDYhL5ciLziu--4" value="Đặt chỗ tài liệu" style="ellipse;whiteSpace=wrap;html=1;fontSize=14;" vertex="1" parent="1">
          <mxGeometry x="219" y="-437" width="116" height="80" as="geometry" />
        </mxCell>
        <mxCell id="2G5A5zgPDYhL5ciLziu--7" value="" style="endArrow=none;html=1;rounded=0;entryX=0.5;entryY=1;entryDx=0;entryDy=0;exitX=0;exitY=0.3333333333333333;exitDx=0;exitDy=0;exitPerimeter=0;" edge="1" parent="1" source="H5rTBziyyxjk62CYWGia-2" target="2G5A5zgPDYhL5ciLziu--4">
          <mxGeometry width="50" height="50" relative="1" as="geometry">
            <mxPoint x="660" y="113" as="sourcePoint" />
            <mxPoint x="562" y="88" as="targetPoint" />
          </mxGeometry>
        </mxCell>
        <mxCell id="2G5A5zgPDYhL5ciLziu--8" value="" style="endArrow=none;html=1;rounded=0;exitX=0.5;exitY=1;exitDx=0;exitDy=0;entryX=0;entryY=0.3333333333333333;entryDx=0;entryDy=0;entryPerimeter=0;" edge="1" parent="1" source="2G5A5zgPDYhL5ciLziu--2" target="H5rTBziyyxjk62CYWGia-2">
          <mxGeometry width="50" height="50" relative="1" as="geometry">
            <mxPoint x="714" y="-151" as="sourcePoint" />
            <mxPoint x="764" y="-201" as="targetPoint" />
          </mxGeometry>
        </mxCell>
      </root>
    </mxGraphModel>
  </diagram>
</mxfile>
